<?xml version="1.0" encoding="UTF-8"?>
<svg version="1.1" xmlns="http://www.w3.org/2000/svg" width="640" height="640">
<path d="M0 0 C211.2 0 422.4 0 640 0 C640 211.2 640 422.4 640 640 C428.8 640 217.6 640 0 640 C0 428.8 0 217.6 0 0 Z " fill="#F2E3DB" transform="translate(0,0)"/>
<path d="M0 0 C4.70669197 9.34334389 6.95440713 16.3601279 6 27 C6.94359375 27.16435547 6.94359375 27.16435547 7.90625 27.33203125 C13.56623682 28.38049266 18.6694886 29.82831017 24 32 C19.82893888 33.39035371 16.81793141 31.90230806 12.8125 30.5625 C12.06291016 30.31951172 11.31332031 30.07652344 10.54101562 29.82617188 C8.69142499 29.22534944 6.84535673 28.61370322 5 28 C4.95101562 28.67546875 4.90203125 29.3509375 4.8515625 30.046875 C4.77679688 30.93890625 4.70203125 31.8309375 4.625 32.75 C4.55539063 33.63171875 4.48578125 34.5134375 4.4140625 35.421875 C4.00149945 37.99066382 3.28839043 39.75841015 2 42 C2.14076315 40.0412957 2.2877676 38.08303907 2.4375 36.125 C2.51871094 35.03445313 2.59992188 33.94390625 2.68359375 32.8203125 C3 30 3 30 4 28 C3.3709375 27.92523438 2.741875 27.85046875 2.09375 27.7734375 C-4.53712065 26.7548399 -9.30160441 24.90071885 -14 20 C-16.39794071 16.58332631 -17 13.57246657 -17 9.375 C-15.76921191 5.2210902 -14.47799969 3.57069543 -11 1 C-7.19927483 0.13316794 -3.8977221 0 0 0 Z " fill="#E4D9D0" transform="translate(211,328)"/>
<path d="M0 0 C3.20126805 1.04041212 6.3196286 2.13287521 9.4296875 3.42578125 C14.99655999 5.52198875 20.78418944 6.36213781 26.625 7.375 C50.76652034 11.76652034 50.76652034 11.76652034 55 16 C57.32817964 16.36760731 59.6618385 16.70241581 62 17 C62.144375 17.61875 62.28875 18.2375 62.4375 18.875 C62.93152225 21.03258322 62.93152225 21.03258322 64 23 C63.4225 22.690625 62.845 22.38125 62.25 22.0625 C60.15705816 21.07416636 58.25464725 20.4831387 56 20 C56 19.34 56 18.68 56 18 C54.35 18.33 52.7 18.66 51 19 C50.505 17.02 50.505 17.02 50 15 C41.91380363 12.82205599 33.88118579 10.93485115 25.61035156 9.59179688 C16.09989575 8.03973205 8.25077829 6.22201158 0 1 C0 0.67 0 0.34 0 0 Z " fill="#645B51" transform="translate(378,189)"/>
<path d="M0 0 C2.66389689 2.66389689 2.98142077 4.40323509 3.09765625 8.13671875 C3.08605469 9.30847656 3.07445312 10.48023438 3.0625 11.6875 C3.05347656 12.86699219 3.04445312 14.04648437 3.03515625 15.26171875 C3.02355469 16.16535156 3.01195312 17.06898438 3 18 C3.94359375 18.16435547 3.94359375 18.16435547 4.90625 18.33203125 C10.56623682 19.38049266 15.6694886 20.82831017 21 23 C16.82893888 24.39035371 13.81793141 22.90230806 9.8125 21.5625 C9.06291016 21.31951172 8.31332031 21.07652344 7.54101562 20.82617188 C5.69142499 20.22534944 3.84535673 19.61370322 2 19 C1.95101562 19.67546875 1.90203125 20.3509375 1.8515625 21.046875 C1.77679688 21.93890625 1.70203125 22.8309375 1.625 23.75 C1.55539063 24.63171875 1.48578125 25.5134375 1.4140625 26.421875 C1.00149945 28.99066382 0.28839043 30.75841015 -1 33 C-0.85923685 31.0412957 -0.7122324 29.08303907 -0.5625 27.125 C-0.48128906 26.03445313 -0.40007812 24.94390625 -0.31640625 23.8203125 C0 21 0 21 1 19 C0.31292969 18.89042969 -0.37414062 18.78085937 -1.08203125 18.66796875 C-2.43361328 18.43013672 -2.43361328 18.43013672 -3.8125 18.1875 C-4.70582031 18.03667969 -5.59914062 17.88585937 -6.51953125 17.73046875 C-9 17 -9 17 -12 14 C-6.06 15.485 -6.06 15.485 0 17 C0 11.39 0 5.78 0 0 Z " fill="#686057" transform="translate(214,337)"/>
<path d="M0 0 C2.74944363 2.51036157 3.87662216 4.38461104 4.16796875 8.19921875 C4.21245174 13.86635137 3.47987573 18.54295826 2 24 C2.061875 25.3921875 2.061875 25.3921875 2.125 26.8125 C2 29 2 29 0.3125 30.5625 C-0.450625 31.036875 -1.21375 31.51125 -2 32 C-3.67036393 33.32869858 -5.33784732 34.66104368 -7 36 C-7.66 35.67 -8.32 35.34 -9 35 C-8.52949219 34.5153125 -8.05898438 34.030625 -7.57421875 33.53125 C0.06244979 25.30957786 1.3512734 19.46708098 1.203125 8.26953125 C1.0254018 5.40887126 0.65052848 2.78573084 0 0 Z " fill="#736A60" transform="translate(417,530)"/>
<path d="M0 0 C7.11966853 1.2821437 14.23208062 2.6001325 21.33984375 3.9465332 C25.219538 4.67832314 29.10319456 5.36563632 33 6 C32.67 6.99 32.34 7.98 32 9 C34.475 11.475 34.475 11.475 37 14 C36.67 14.66 36.34 15.32 36 16 C35.60167969 15.566875 35.20335937 15.13375 34.79296875 14.6875 C34.26316406 14.130625 33.73335938 13.57375 33.1875 13 C32.40439453 12.1646875 32.40439453 12.1646875 31.60546875 11.3125 C29.95851033 9.683535 29.95851033 9.683535 27 10 C27 9.34 27 8.68 27 8 C25.20755859 7.61908203 25.20755859 7.61908203 23.37890625 7.23046875 C15.43536581 5.51862828 7.63637753 3.82828798 0 1 C0 0.67 0 0.34 0 0 Z " fill="#7C7369" transform="translate(380,514)"/>
<path d="M0 0 C4.66726164 4.03871924 6.45598318 10.41067161 7.359375 16.37109375 C7.67786835 25.30483215 4.14469725 33.28228787 0 41 C-1.29645655 37.11063036 -0.357546 36.28245662 1.4375 32.6875 C5.10686592 24.33232331 5.01255333 15.82554123 3 7 C2.01 6.67 1.02 6.34 0 6 C0 4.02 0 2.04 0 0 Z " fill="#756B61" transform="translate(334,121)"/>
<path d="M0 0 C3.80758073 3.80758073 4.14863427 8.88902482 4.3125 14.0625 C4.2402871 18.36244983 3.32925363 21.31201509 1 25 C0.67 24.34 0.34 23.68 0 23 C0.33 22.01 0.66 21.02 1 20 C0.68289063 19.44828125 0.36578125 18.8965625 0.0390625 18.328125 C-1.51942744 14.8361701 -0.95305698 11.46360498 -0.625 7.75 C-0.56828125 7.00492188 -0.5115625 6.25984375 -0.453125 5.4921875 C-0.31223742 3.66064892 -0.15748116 1.83018648 0 0 Z " fill="#A79D93" transform="translate(365,237)"/>
<path d="M0 0 C-1.65 0.66 -3.3 1.32 -5 2 C-3.5459375 3.175625 -3.5459375 3.175625 -2.0625 4.375 C-0.16037654 5.91288705 0.89629957 6.79259913 2 9 C2.16796875 11.05859375 2.16796875 11.05859375 2.1875 13.4375 C2.20167969 14.21996094 2.21585937 15.00242187 2.23046875 15.80859375 C2 18 2 18 0 21 C-0.66 20.67 -1.32 20.34 -2 20 C-1.34 19.01 -0.68 18.02 0 17 C0.43761518 13.06146335 0.41164881 10.75468949 -1.5 7.25 C-8.42119533 1.0209242 -16.18115789 1.63702936 -25 2 C-22.53770621 -0.46229379 -21.67961511 -0.29930968 -18.28125 -0.44921875 C-17.34925781 -0.49240234 -16.41726563 -0.53558594 -15.45703125 -0.58007812 C-13.99330078 -0.63325195 -13.99330078 -0.63325195 -12.5 -0.6875 C-11.52417969 -0.73455078 -10.54835938 -0.78160156 -9.54296875 -0.83007812 C-2.27348732 -1.13674366 -2.27348732 -1.13674366 0 0 Z " fill="#4C433B" transform="translate(338,311)"/>
<path d="M0 0 C0.66 0.33 1.32 0.66 2 1 C2 1.66 2 2.32 2 3 C3.32 3.33 4.64 3.66 6 4 C5.505 5.3921875 5.505 5.3921875 5 6.8125 C3.85032996 9.92029291 3.85032996 9.92029291 4 13 C1.525 12.01 1.525 12.01 -1 11 C-0.34 10.67 0.32 10.34 1 10 C-1.31 7.36 -3.62 4.72 -6 2 C-4.33333333 2 -2.66666667 2 -1 2 C-0.67 1.34 -0.34 0.68 0 0 Z " fill="#BCB1A7" transform="translate(306,435)"/>
<path d="M0 0 C0.66 0.33 1.32 0.66 2 1 C1.50628906 1.48210937 1.01257813 1.96421875 0.50390625 2.4609375 C-0.13675781 3.09257812 -0.77742188 3.72421875 -1.4375 4.375 C-2.07558594 5.00148438 -2.71367187 5.62796875 -3.37109375 6.2734375 C-5.07882176 7.91723061 -5.07882176 7.91723061 -6 10 C-3.03 10 -0.06 10 3 10 C2.34 11.32 1.68 12.64 1 14 C0.64207936 18.83192861 1.24230064 22.49589539 3 27 C-0.94463583 23.22687008 -0.94463583 23.22687008 -1.09765625 19.8359375 C-1.08605469 19.02382813 -1.07445312 18.21171875 -1.0625 17.375 C-1.05347656 16.55773437 -1.04445313 15.74046875 -1.03515625 14.8984375 C-1.02355469 14.27195312 -1.01195312 13.64546875 -1 13 C-3.31 12.34 -5.62 11.68 -8 11 C-6.52670958 5.99081256 -3.72484762 3.48192278 0 0 Z " fill="#61584F" transform="translate(335,269)"/>
<path d="M0 0 C5.23124206 0.74188524 8.99435566 3.15554843 13.4765625 5.8203125 C16.03701202 7.37001627 16.03701202 7.37001627 19 6 C21 8 21 8 21.4375 9.875 C22.1142733 12.43169914 23.33505564 13.97311122 25 16 C22.48435529 14.88193568 20.64201233 13.70466017 18.5 11.9375 C16.23273482 9.9075256 16.23273482 9.9075256 13.9375 9.5 C12 9 12 9 10.25 7.1875 C7.22674185 4.24822125 3.80604749 2.73674012 0 1 C0 0.67 0 0.34 0 0 Z " fill="#73685F" transform="translate(235,361)"/>
<path d="M0 0 C3.1489715 1.36911804 5.0478487 2.8752136 7.25 5.5 C8.03117187 6.41265625 8.03117187 6.41265625 8.828125 7.34375 C10 9 10 9 10 11 C8.02 11.66 6.04 12.32 4 13 C3.34 12.34 2.68 11.68 2 11 C2 10.01 2 9.02 2 8 C2.99 7.34 3.98 6.68 5 6 C3.35 4.02 1.7 2.04 0 0 Z " fill="#ACA297" transform="translate(383,74)"/>
<path d="M0 0 C0.66 0.33 1.32 0.66 2 1 C1.67 1.66 1.34 2.32 1 3 C2.65 2.34 4.3 1.68 6 1 C4.38405168 3.04119788 2.7143618 5.04072937 1 7 C0.34 7 -0.32 7 -1 7 C-1.66 8.32 -2.32 9.64 -3 11 C-3.98995103 8.32713221 -4.04574968 7.14780667 -3.1875 4.375 C-2 2 -2 2 0 0 Z " fill="#AAA096" transform="translate(319,340)"/>
<path d="M0 0 C3.44057094 3.15320949 5.89674158 6.66792588 8.3125 10.625 C8.68439453 11.21023437 9.05628906 11.79546875 9.43945312 12.3984375 C10.35989729 13.89308798 11.18825721 15.44363527 12 17 C11.67 17.66 11.34 18.32 11 19 C8.525 15.04 8.525 15.04 6 11 C5.01 11.495 5.01 11.495 4 12 C3.01 9.69 2.02 7.38 1 5 C0.67 5 0.34 5 0 5 C0 3.35 0 1.7 0 0 Z " fill="#877E73" transform="translate(344,200)"/>
<path d="M0 0 C0.99 2.97 1.98 5.94 3 9 C2.195625 8.195625 1.39125 7.39125 0.5625 6.5625 C-3.26663263 3.31186942 -7.1211256 3.11926137 -12 3 C-11.67 2.34 -11.34 1.68 -11 1 C-7.25801961 0.29396596 -3.81207261 0 0 0 Z " fill="#968B83" transform="translate(211,328)"/>
<path d="M0 0 C-6.435 2.97 -6.435 2.97 -13 6 C-12.67 6.66 -12.34 7.32 -12 8 C-14.97 8.66 -17.94 9.32 -21 10 C-17.44285772 6.09646934 -14.17868569 3.80046226 -9.375 1.625 C-7.68503906 0.83996094 -7.68503906 0.83996094 -5.9609375 0.0390625 C-3 -1 -3 -1 0 0 Z " fill="#766C61" transform="translate(421,246)"/>
<path d="M0 0 C1.0209375 0.2165625 1.0209375 0.2165625 2.0625 0.4375 C5.36273082 1.06945909 8.67144426 1.54313941 12 2 C12.144375 2.61875 12.28875 3.2375 12.4375 3.875 C12.93152225 6.03258322 12.93152225 6.03258322 14 8 C13.4225 7.690625 12.845 7.38125 12.25 7.0625 C10.15705816 6.07416636 8.25464725 5.4831387 6 5 C6 4.34 6 3.68 6 3 C4.35 3.33 2.7 3.66 1 4 C0.67 2.68 0.34 1.36 0 0 Z " fill="#A0968D" transform="translate(428,204)"/>
<path d="M0 0 C2.95799929 2.31093695 3.9203415 3.48221974 4.5 7.25 C3.89396565 11.79525764 2.28363223 15.0750071 0 19 C-1.33332095 16.3333581 -0.67102033 14.83319697 0 12 C0.66 12 1.32 12 2 12 C1.85831863 10.56208484 1.71148957 9.1246763 1.5625 7.6875 C1.48128906 6.88699219 1.40007812 6.08648437 1.31640625 5.26171875 C1.04734307 2.83912821 1.04734307 2.83912821 0 0 Z " fill="#7C7167" transform="translate(442,212)"/>
<path d="M0 0 C0 3.96130371 -1.34877125 4.82914401 -4 7.6875 C-4.7425 8.49574219 -5.485 9.30398437 -6.25 10.13671875 C-6.8275 10.75160156 -7.405 11.36648437 -8 12 C-8 9 -8 6 -8 3 C-5.92446352 2.4465236 -4.15634036 2 -2 2 C-1.34 1.34 -0.68 0.68 0 0 Z " fill="#958B81" transform="translate(385,136)"/>
<path d="M0 0 C0.33 0 0.66 0 1 0 C2.25 7.625 2.25 7.625 0 11 C0.80161791 13.67145537 0.80161791 13.67145537 2 16 C0 14.625 0 14.625 -2 12 C-2.46721691 8.63169205 -2.50418243 5.36512461 -2 2 C-1.34 1.34 -0.68 0.68 0 0 Z " fill="#B6ACA2" transform="translate(362,429)"/>
<path d="M0 0 C0.66 0.33 1.32 0.66 2 1 C0.25595212 2.01034498 -1.49549561 3.00792422 -3.25 4 C-4.22453125 4.556875 -5.1990625 5.11375 -6.203125 5.6875 C-9 7 -9 7 -13 7 C-11.63016497 3.83884224 -11.0109362 3.0072908 -8 1 C-8 1.99 -8 2.98 -8 4 C-7.16855469 3.54947266 -7.16855469 3.54947266 -6.3203125 3.08984375 C-5.59585937 2.70957031 -4.87140625 2.32929688 -4.125 1.9375 C-3.40570313 1.55464844 -2.68640625 1.17179687 -1.9453125 0.77734375 C-1.30335938 0.52082031 -0.66140625 0.26429688 0 0 Z " fill="#5C534A" transform="translate(351,272)"/>
<path d="M0 0 C-0.33 1.98 -0.66 3.96 -1 6 C-2.32 6 -3.64 6 -5 6 C-5.66 5.34 -6.32 4.68 -7 4 C-3.375 0 -3.375 0 0 0 Z " fill="#BDB5AA" transform="translate(337,332)"/>
<path d="M0 0 C0.84498047 0.41378906 0.84498047 0.41378906 1.70703125 0.8359375 C2.03703125 1.8259375 2.36703125 2.8159375 2.70703125 3.8359375 C-2.82939259 2.9551428 -2.82939259 2.9551428 -5.48046875 2.2734375 C-7.46825081 1.71861723 -7.46825081 1.71861723 -10.29296875 1.8359375 C-6.89020466 -1.85039026 -4.45210176 -1.13987021 0 0 Z " fill="#5E554C" transform="translate(370.29296875,446.1640625)"/>
<path d="M0 0 C0.33 0.66 0.66 1.32 1 2 C-1.64 5.63 -4.28 9.26 -7 13 C-7 12.01 -7 11.02 -7 10 C-7.66 9.01 -8.32 8.02 -9 7 C-8.01 7 -7.02 7 -6 7 C-5.67 6.34 -5.34 5.68 -5 5 C-4.67 5.33 -4.34 5.66 -4 6 C-2.68 4.02 -1.36 2.04 0 0 Z " fill="#80776C" transform="translate(374,353)"/>
<path d="M0 0 C1.65 0.33 3.3 0.66 5 1 C4.01 1.495 4.01 1.495 3 2 C3 2.99 3 3.98 3 5 C-0.3 5 -3.6 5 -7 5 C-7 4.67 -7 4.34 -7 4 C-5.824375 3.8453125 -5.824375 3.8453125 -4.625 3.6875 C-1.66954819 3.22404978 -1.66954819 3.22404978 0 0 Z " fill="#F5ECE4" transform="translate(331,306)"/>
<path d="M0 0 C1.32 0.33 2.64 0.66 4 1 C1.17493137 3.9297008 -1.78796065 6.50174717 -5 9 C-5.66 8.67 -6.32 8.34 -7 8 C-4.69 5.36 -2.38 2.72 0 0 Z " fill="#948B82" transform="translate(415,557)"/>
<path d="M0 0 C-0.66 1.65 -1.32 3.3 -2 5 C-3.65 4.67 -5.3 4.34 -7 4 C-6.6875 2.0625 -6.6875 2.0625 -6 0 C-3 -1 -3 -1 0 0 Z " fill="#D3C8BE" transform="translate(383,73)"/>
<path d="M0 0 C2.475 0.495 2.475 0.495 5 1 C5.103125 1.7425 5.20625 2.485 5.3125 3.25 C6.04253504 6.17014018 7.06789398 7.73187554 9 10 C4.50486731 8.50162244 2.37078067 4.87680938 0 1 C0 0.67 0 0.34 0 0 Z " fill="#ACA298" transform="translate(251,367)"/>
<path d="M0 0 C1.24205807 2.48411615 1.14092354 4.25199104 1 7 C0.67 7.33 0.34 7.66 0 8 C-0.23075082 9.34747084 -0.41153063 10.70377565 -0.5625 12.0625 C-0.706875 13.361875 -0.85125 14.66125 -1 16 C-1.33 16 -1.66 16 -2 16 C-2.05423638 14.08364783 -2.09289963 12.16685075 -2.125 10.25 C-2.14820313 9.18265625 -2.17140625 8.1153125 -2.1953125 7.015625 C-2.00487687 4.07529894 -1.52670104 2.47638122 0 0 Z " fill="#F9EFE5" transform="translate(333,164)"/>
<path d="M0 0 C1.485 0.99 1.485 0.99 3 2 C3.66 1.67 4.32 1.34 5 1 C3.8141763 4.37503669 2.72426311 6.64722731 0 9 C-1.125 2.25 -1.125 2.25 0 0 Z " fill="#A2978D" transform="translate(371,147)"/>
<path d="M0 0 C1.485 0.99 1.485 0.99 3 2 C3.33 2 3.66 2 4 2 C4.66 2.33 5.32 2.66 6 3 C4.35 4.32 2.7 5.64 1 7 C0.34 6.67 -0.32 6.34 -1 6 C-1.042721 4.33388095 -1.04063832 2.66617115 -1 1 C-0.67 0.67 -0.34 0.34 0 0 Z " fill="#BBB0A7" transform="translate(315,66)"/>
<path d="M0 0 C0.66 0 1.32 0 2 0 C2.144375 0.94875 2.28875 1.8975 2.4375 2.875 C2.82935399 5.8934494 2.82935399 5.8934494 4 8 C2.68 8.33 1.36 8.66 0 9 C-0.144375 8.21625 -0.28875 7.4325 -0.4375 6.625 C-0.87798925 4.03578982 -0.87798925 4.03578982 -2 2 C-1.34 2 -0.68 2 0 2 C0 1.34 0 0.68 0 0 Z " fill="#A79B91" transform="translate(266,379)"/>
<path d="M0 0 C0.33 0 0.66 0 1 0 C1.12117188 0.61488281 1.24234375 1.22976563 1.3671875 1.86328125 C1.53476562 2.67152344 1.70234375 3.47976563 1.875 4.3125 C2.03742188 5.11300781 2.19984375 5.91351563 2.3671875 6.73828125 C2.94478999 9.25301118 2.94478999 9.25301118 5 12 C3.35 11.67 1.7 11.34 0 11 C0 7.37 0 3.74 0 0 Z " fill="#DED6CC" transform="translate(345,392)"/>
<path d="M0 0 C0.66 0.33 1.32 0.66 2 1 C1.835 1.598125 1.67 2.19625 1.5 2.8125 C0.8885876 5.11344336 0.8885876 5.11344336 1 8 C0.34 8 -0.32 8 -1 8 C-1.66 6.35 -2.32 4.7 -3 3 C-2.01 2.01 -1.02 1.02 0 0 Z " fill="#B1A59C" transform="translate(218,402)"/>
<path d="M0 0 C1.98 0.66 3.96 1.32 6 2 C4.68 3.65 3.36 5.3 2 7 C1.34 4.69 0.68 2.38 0 0 Z " fill="#D5CCC2" transform="translate(353,217)"/>
<path d="M0 0 C1.65 1.65 3.3 3.3 5 5 C4.67 5.66 4.34 6.32 4 7 C2.68 6.34 1.36 5.68 0 5 C0 3.35 0 1.7 0 0 Z " fill="#8C8378" transform="translate(339,193)"/>
<path d="M0 0 C0.66 0.33 1.32 0.66 2 1 C2.59355614 3.64860427 2.74209269 6.29197322 3 9 C0.27573689 6.64722731 -0.8141763 4.37503669 -2 1 C-1.34 0.67 -0.68 0.34 0 0 Z " fill="#857B71" transform="translate(331,112)"/>
</svg>
